<svg width="512" height="512" viewBox="0 0 512 512" fill="none" xmlns="http://www.w3.org/2000/svg">
<rect width="512" height="512" rx="94" fill="white"/>
<circle cx="256.5" cy="255.5" r="211.5" fill="#FFB400"/>
<path fill-rule="evenodd" clip-rule="evenodd" d="M247.244 60.127C277.738 58.9883 294.919 73.405 298.785 103.377C333.283 113.572 356.945 135.497 369.767 169.153C372.427 176.149 374.235 183.357 375.193 190.778C377.635 215.384 379.745 240.013 381.522 264.664C393.486 267.274 401.021 274.482 404.128 286.289C406.018 302.785 407.676 319.304 409.102 335.846C407.964 349.734 400.881 359.044 387.852 363.778C381.011 398.527 360.062 419.101 325.008 425.5C278.289 426.101 231.571 426.101 184.852 425.5C150.348 418.75 129.702 398.177 122.912 363.778C111.391 360.058 104.459 352.249 102.114 340.351C102.729 321.03 104.538 301.808 107.54 282.684C111.569 272.506 118.954 266.499 129.693 264.664C131.455 238.793 133.715 212.964 136.475 187.174C145.679 144.82 170.848 116.888 211.979 103.377C213.737 80.8981 225.492 66.4814 247.244 60.127Z" fill="#003F97"/>
<path fill-rule="evenodd" clip-rule="evenodd" d="M249.953 78.1459C265.489 77.004 274.834 83.9119 277.984 98.8699C262.935 98.0361 247.865 97.7357 232.772 97.9688C234.618 88.0202 240.345 81.4125 249.953 78.1459Z" fill="#FFB400"/>
<path fill-rule="evenodd" clip-rule="evenodd" d="M232.777 105.178C247.851 105.027 262.922 105.178 277.989 105.628C324.807 113.236 354.495 139.816 367.056 185.37C367.881 189.24 368.484 193.145 368.865 197.084C373.576 250.224 377.796 303.385 381.524 356.568C377.796 390.918 358.958 411.491 325.009 418.29C278.29 418.891 231.572 418.891 184.853 418.29C156.239 412.001 138.305 394.731 131.051 366.48C129.848 359.304 129.546 352.096 130.147 344.855C134.543 294.111 138.762 243.352 142.806 192.579C153.064 143.161 183.054 114.028 232.777 105.178Z" fill="#0280DD"/>
<path fill-rule="evenodd" clip-rule="evenodd" d="M217.404 160.141C243.684 159.712 269.906 160.163 296.072 161.493C299.289 163.198 301.55 165.75 302.854 169.152C303.457 177.261 303.457 185.37 302.854 193.48C300.836 198.193 297.37 201.347 292.455 202.941C267.74 203.542 243.024 203.542 218.308 202.941C209.209 198.622 205.592 191.414 207.457 181.316C205.586 171.684 208.902 164.626 217.404 160.141Z" fill="white"/>
<path fill-rule="evenodd" clip-rule="evenodd" d="M186.658 259.255C232.172 259.104 277.686 259.255 323.198 259.705C343.482 263.91 354.182 276.375 355.298 297.098C357.986 301.224 359.795 305.73 360.723 310.614C361.326 328.034 361.326 345.455 360.723 362.875C357.922 378.88 348.729 389.242 333.144 393.961C289.741 394.562 246.338 394.562 202.934 393.961C199.511 392.705 196.196 391.204 192.988 389.455C173.392 388.247 161.185 378.185 156.366 359.27C155.763 335.242 155.763 311.215 156.366 287.187C161.185 272.018 171.282 262.707 186.658 259.255Z" fill="#003F97"/>
<path fill-rule="evenodd" clip-rule="evenodd" d="M185.753 266.467C233.116 266.032 280.438 266.483 327.717 267.818C344.468 275.518 351.099 288.584 347.61 307.013C335.252 307.013 322.895 307.013 310.537 307.013C310.011 300.284 306.394 297.731 299.686 299.355C296.662 301.061 295.456 303.614 296.069 307.013C251.762 307.013 207.454 307.013 163.147 307.013C159.716 287.098 167.251 273.582 185.753 266.467Z" fill="#FFB400"/>
<path fill-rule="evenodd" clip-rule="evenodd" d="M125.174 272.771C126.379 272.771 127.585 272.771 128.791 272.771C126.563 300.401 124.303 328.033 122.009 355.666C113.636 351.436 109.265 344.678 108.897 335.393C110.601 319.03 112.259 302.661 113.871 286.286C115.87 280.246 119.638 275.74 125.174 272.771Z" fill="#7BB52B"/>
<path fill-rule="evenodd" clip-rule="evenodd" d="M390.112 354.765C389.509 351.762 388.906 348.758 388.303 345.755C386.242 321.447 384.433 297.118 382.878 272.771C390.03 274.641 394.703 279.146 396.894 286.286C398.355 300.709 399.862 315.126 401.415 329.536C403.483 340.649 399.715 349.058 390.112 354.765Z" fill="#7BB52B"/>
<path fill-rule="evenodd" clip-rule="evenodd" d="M163.153 314.221C206.858 314.221 250.563 314.221 294.267 314.221C293.215 320.8 292.763 327.408 292.911 334.043C297.383 340.825 303.261 342.176 310.543 338.098C311.937 336.675 312.992 335.023 313.708 333.142C313.659 326.893 312.905 320.736 311.448 314.671C323.5 314.221 335.557 314.07 347.617 314.221C348.004 329.882 347.552 345.499 346.261 361.075C342.025 372.806 333.737 379.564 321.394 381.348C276.484 381.949 231.574 381.949 186.663 381.348C174.548 378.586 166.862 371.228 163.605 359.273C163.153 344.259 163.002 329.241 163.153 314.221Z" fill="#7BB52B"/>
<path fill-rule="evenodd" clip-rule="evenodd" d="M388.303 345.76C388.906 348.763 389.508 351.767 390.111 354.77C390.057 355.259 389.756 355.56 389.207 355.671C388.313 352.421 388.011 349.117 388.303 345.76Z" fill="#858585"/>
</svg>
